<?xml version="1.0" encoding="UTF-8"?>
<svg id="Capa_1" xmlns="http://www.w3.org/2000/svg" version="1.1" viewBox="0 0 612 792">
  <!-- Generator: Adobe Illustrator 30.3.0, SVG Export Plug-In . SVG Version: 2.1.3 Build 182)  -->
  <defs>
    <style>
      .st0 {
        fill: #eb5c10;
      }
    </style>
  </defs>
  <path class="st0" d="M255.58,548.4c-9.12-21.5-7.49-60.07-7.99-135.44s1.39-113.45,5.38-120.01.01-5.33.01-5.33l-76.24.57s10.01,6.76,9.12,39.99-1.83,193.05-1.83,193.05c0,0-.71,16.88-6.41,26.49s77.96.68,77.96.68Z"/>
  <path class="st0" d="M298.14,288.29l61.7-.28s43.29,66.17-42.9,138.04c0,0,20.78,66.83,49.25,116.18,0,0,15.72,8.03,6.08,8.13-9.64.1-81.42-1.13-81.42-1.13,0,0-8.36,1.36-1.96-10.41l-41.29-125.87s93.37-40.17,50.54-124.66Z"/>
  <path class="st0" d="M411.64,319.54s-12.76,8.16-26.76,2.34-1.05-2.62-1.05-2.62c0,0,10.55,3.57,17.83-1.46s11.14-15.6,7.22-19.11-10.1-4.65-14.22-7.76-17.29-11.64-11.26-32.62,32.72-23.63,42.25-13.58,14.43,16.2,9.09,43.08c-4.51,17.81-15.04,27.23-23.1,31.73Z"/>
</svg>